{"title":"On.the.way.to.school.2013 [PAz]","uid":11129325,"size":813707143,"categoryP":"video","categoryS":"movies","magnet":"?xt=urn:btih:a4cdfd07d5377d5edd055821c7f427034449c629&amp;dn=On.the.way.to.school.2013+%5BPAz%5D&amp;tr=udp%3A%2F%2Ftracker.openbittorrent.com%3A80&amp;tr=udp%3A%2F%2Fopen.demonii.com%3A1337&amp;tr=udp%3A%2F%2Ftracker.coppersurfer.tk%3A6969&amp;tr=udp%3A%2F%2Fexodus.desync.com%3A6969","seeders":1,"leechers":0,"uploader":null,"files":3,"time":1412016692,"description":"Country: France\n Year: 2013\n Sound: French\n Subtitles: English and Portuguese (.SRT)\n\n IMDB code: tt3013258\n IMDB rate: 7.0/10 (214\n\nJackson, from Kenya\nCarlito, from Argentina\nZahira, from Morocco\nSamuel, from India...\nfour children who live very far away from each other and who have never met but who have a common point: they have to cover tremendously long distances to reach their school. \nOn foot, on horseback or in a wheelchair, but all with an extraordinary determination... \n\nGeneral\nComplete name                            : On.the.way.to.school.2013 [PAz].avi\nFormat                                   : AVI\nFormat/Info                              : Audio Video Interleave\nFile size                                : 776 MiB\nDuration                                 : 1h 14mn\nOverall bit rate                         : 1 465 Kbps\nWriting application                      : Magic0515\nWriting library                          : VirtualDub build 35491/release\n\nVideo\nID                                       : 0\nFormat                                   : MPEG-4 Visual\nFormat profile                           : Advanced Simple@L4\nFormat settings, BVOP                    : No\nFormat settings, QPel                    : No\nFormat settings, GMC                     : No warppoints\nFormat settings, Matrix                  : Default (H.263)\nCodec ID                                 : XVID\nCodec ID/Hint                            : XviD\nDuration                                 : 1h 14mn\nBit rate                                 : 1 199 Kbps\nWidth                                    : 720 pixels\nHeight                                   : 380 pixels\nDisplay aspect ratio                     : 1.895\nFrame rate                               : 25.000 fps\nColor space                              : YUV\nChroma subsampling                       : 4:2:0\nBit depth                                : 8 bits\nScan type                                : Progressive\nCompression mode                         : Lossy\nBits/(Pixel*Frame)                       : 0.175\nStream size                              : 635 MiB (82%)\nWriting library                          : Magic0432\n\nAudio\nID                                       : 1\nFormat                                   : AC-3\nFormat/Info                              : Audio Coding 3\nMode extension                           : CM (complete main)\nFormat settings, Endianness              : Big\nCodec ID                                 : 2000\nDuration                                 : 1h 14mn\nBit rate mode                            : Constant\nBit rate                                 : 256 Kbps\nChannel count                            : 6 channels\nChannel positions                        : Front: L C R, Side: L R, LFE\nSampling rate                            : 48.0 KHz\nBit depth                                : 16 bits\nCompression mode                         : Lossy\nDelay relative to video                  : 8ms\nStream size                              : 136 MiB (17%)\nAlignment                                : Split accross interleaves\nInterleave, duration                     : 40 ms (1.00 video frame)\nInterleave, preload duration             : 500 ms","torrent":{"xt":"urn:btih:a4cdfd07d5377d5edd055821c7f427034449c629","amp;dn":"On.the.way.to.school.2013+%5BPAz%5D","amp;tr":["udp%3A%2F%2Ftracker.openbittorrent.com%3A80","udp%3A%2F%2Fopen.demonii.com%3A1337","udp%3A%2F%2Ftracker.coppersurfer.tk%3A6969","udp%3A%2F%2Fexodus.desync.com%3A6969"],"infoHash":"a4cdfd07d5377d5edd055821c7f427034449c629","infoHashBuffer":{"type":"Buffer","data":[164,205,253,7,213,55,125,94,221,5,88,33,199,244,39,3,68,73,198,41]},"announce":[],"urlList":[]}}